<svg xmlns="http://www.w3.org/2000/svg" width="221.163" height="224.427" style="fill:#BF00FF" version="1.0" viewBox="-0.2 0 366.6 372.2"><path d="m155.862 71.186 12.914 13.663c.55.582 1.123 1.207 1.279 1.992.143.72-.09 1.46-.078 2.194.026 1.662 1.26 3.024 2.419 4.215l4.343 4.463c.921.946 1.874 1.946 2.245 3.213.502 1.712-.157 3.555.056 5.327.148 1.228.706 2.362 1.233 3.481a93.166 93.166 0 0 1 6.876 20.415c.355 1.677.634 3.547-.268 5.005-.807 1.304-2.342 1.922-3.566 2.846-1.224.924-2.201 2.67-1.338 3.938.384.565 1.04.873 1.671 1.138 6.674 2.806 13.954 3.765 21.134 4.696 1.272.165 2.559.33 3.834.184a8.032 8.032 0 0 0 5.623-3.377c5.257-7.634 12.751-13.489 21.832-15.345 11.389-2.328 23.413 1.855 34.734-.785 4.775-5.879 11.316-10.987 18.435-13.571 4.977-1.807 10.548-2.642 15.546-.896 1.216.425 2.411 1.003 3.698 1.068 1.529.077 2.987-.58 4.377-1.222l4.737-2.189c-2.036-9.793-4.164-20.448-3.828-30.445.085-2.537.317-5.075.208-7.611-.06-1.4-.224-2.793-.424-4.179a82.096 82.096 0 0 0-4.439-17.257c-2.32-6.151-5.368-11.997-8.409-17.825-.705-1.351-3.073-1.589-4.595-1.504-1.522.085-3.005.518-4.523.651-5.957.521-11.393-3.559-17.351-4.066-2.657-.226-5.315.269-7.94.74-.577.104-1.189.203-1.734-.014-.605-.241-.999-.821-1.332-1.381a25.117 25.117 0 0 1-1.747-3.544c-.315-.79-.569-1.754-.06-2.435.249-.332.642-.532.892-.862.658-.868.064-2.116.238-3.191.105-.648.489-1.21.851-1.758a42.908 42.908 0 0 0 4.974-10.29c.5-1.528.944-3.137 1.999-4.349C272.013.442 274.735-.047 277.224 0a22.641 22.641 0 0 1 14.157 5.377c1.052.899 2.018 1.893 3.061 2.803.898.783 1.85 1.502 2.801 2.22l6.771 5.11 5.153 3.889c2.177 1.643 4.362 3.291 6.743 4.622 4.227 2.363 5.08 7.506 7.527 11.684 1.492 2.548 3.32 4.302 5.043 6.699l9.596 13.348c2.123 2.953 4.246 5.906 6.255 8.938a143.368 143.368 0 0 1 21.599 54.102c.411 2.333-.759 4.615-2.082 6.581-1.332 1.979-3.136 3.583-4.881 5.208-8.884 8.269-16.724 17.602-25.568 25.914-8.844 8.312-18.95 15.716-30.621 19.045-10.436 2.976-22.13 2.743-31.101 8.85-11.769 8.012-7.729 27.178-13.024 40.394-2.337 5.834-5.587 11.305-7.442 17.31-3.632 11.757-6.13 23.958-11.271 35.138-1.892 4.115-4.066 8.138-5.279 12.502-2.38 8.566-.872 17.71 1.288 26.334 2.159 8.624 4.974 17.207 5.191 26.095.252 10.338 5.688 20.039 8.533 29.981H114.808c2.333-7.176 4.887-13.637 7.976-20.521.909-2.026 1.858-4.06 2.304-6.235.419-2.045.381-4.152.517-6.236.711-10.915 6.212-21.398 5.08-32.277-.417-4.013.241-7.988-1.087-11.797-1.329-3.809-3.344-7.336-5.354-10.834-5.021-8.738-10.114-17.5-16.567-25.241-1.716 2.278-3.715 4.581-5.431 6.859-1.727 2.293-3.456 4.587-5.285 6.799-7.376 8.917-16.465 16.505-26.882 21.547-5.999 2.904-12.421 4.966-18.108 8.443-2.703 1.652-5.237 3.623-8.156 4.853-3.3 1.391-6.935 1.769-10.514 1.878-5.621.172-11.542-.373-16.229-3.48-1.847-1.224-2.639-3.443-3.634-5.422l-3.902-7.756c-1.214-2.413-2.43-4.83-3.439-7.336-2.983-7.405-4.103-15.416-4.869-23.362a289.864 289.864 0 0 1-1.214-19.384c-.238-8.208 3.238-16.512 3.894-24.697.528-6.585-.499-13.395 1.496-19.693 1.585-5.003 3.514-10.332 6.176-14.855l16.74-28.45c.399-.678.81-1.371 1.414-1.876 1.27-1.061 3.148-1.069 4.719-.549s2.948 1.487 4.413 2.257c3.651 1.917 7.876 2.617 11.395 4.766.562.343 1.123.743 1.439 1.322.338.619.352 1.357.538 2.037.396 1.454 1.541 2.557 2.427 3.776s1.542 2.87.834 4.2c-.29.544-.772.957-1.255 1.34-2.195 1.741-4.678 3.208-6.359 5.449-.893 1.19-1.525 2.556-2.38 3.774-4.45 6.338-14.114 7.71-17.784 14.529-1.394 2.59-1.694 5.622-1.742 8.563a58.177 58.177 0 0 0 2.481 17.776c1.314 4.34 4.164 7.665 6.524 11.537 1.135 1.862 2.305 3.709 3.649 5.426 1.036 1.323 2.176 2.57 3.09 3.98 1.148 1.774 1.911 3.764 2.649 5.744 1.389-2.66 2.134-5.704 3.061-8.558 1.378-4.242 4.171-7.915 7.451-10.937 3.28-3.022 7.054-5.451 10.822-7.838-.179-5.907 2.657-11.44 5.302-16.725 1.651-3.3 3.46-6.534 5.651-9.504 9.527-12.913 26.535-19.856 42.377-17.297 1.295.209 2.823-.441 3.756-1.362l10.693-10.559c1.166-1.151 2.345-2.319 3.181-3.728 1.775-2.993 1.788-6.777.803-10.114-.985-3.337-2.871-6.326-4.768-9.244-1.253-1.928-2.554-3.884-4.379-5.282-1.2-.92-2.584-1.564-3.883-2.338-5.038-2.999-8.893-7.982-14.419-9.941-7.507-2.661-13.277-10.025-16.041-17.496a21.796 21.796 0 0 1-1.273-9.355c.185-2.199.704-4.355 1.221-6.501l2.18-9.047c.278-1.153.559-2.317 1.077-3.383 1.065-2.194 3.029-3.793 4.94-5.309 4.198-3.329 8.456-6.628 13.149-9.213 4.693-2.586 9.873-4.45 15.225-4.701 2.621-.123 5.246.141 7.844.506 3.314.466 6.645 1.111 9.677 2.527 3.029 1.419 5.545 5.155 7.843 7.587z" style="fill:inherit"/></svg>