<?xml version="1.0" encoding="UTF-8"?>
<svg version="1.1" xmlns="http://www.w3.org/2000/svg" width="422" height="182" viewBox="0 0 422 182">
<path d="M0 0 C6.91962804 4.4881073 13.59159142 9.28217221 19.9765625 14.5078125 C18.66526464 17.45981637 17.33353632 19.26648788 14.9140625 21.3828125 C1.41092414 34.60522033 -5.1609978 53.46710038 -9.0234375 71.5078125 C-10.0134375 71.5078125 -11.0034375 71.5078125 -12.0234375 71.5078125 C-12.90458715 52.8812879 -8.19202843 37.48253188 1.72265625 21.734375 C3.22191082 19.49804049 3.22191082 19.49804049 2.9765625 16.5078125 C0.83084776 14.59645242 -1.26118273 12.92690376 -3.5859375 11.2578125 C-4.25906982 10.77127197 -4.93220215 10.28473145 -5.62573242 9.78344727 C-19.50750641 0.03797409 -33.87919889 -5.06590271 -51.0234375 -3.4921875 C-55.4767443 -2.44740958 -59.73333526 -1.0700833 -64.0234375 0.5078125 C-65.0134375 0.8378125 -66.0034375 1.1678125 -67.0234375 1.5078125 C-69.68100722 5.64679778 -69.87559732 9.74800092 -69.0234375 14.5078125 C-64.56926451 24.19521535 -55.61539254 32.51706533 -47.45703125 39.1328125 C-46.1084375 40.57447917 -45.10260417 41.3978125 -44.0234375 42.5078125 C-28.81409139 59.27201741 -21.17070903 79.20182768 -19.0234375 101.5078125 C-18.82298828 100.88962646 -18.62253906 100.27144043 -18.41601562 99.63452148 C-11.31834122 77.95724209 -2.71305135 58.60711846 13.9765625 42.5078125 C14.74355469 41.70601562 15.51054687 40.90421875 16.30078125 40.078125 C29.57106777 26.34721697 46.32784876 17.50470793 65.76220703 17.12768555 C82.26358576 17.16385012 95.85776664 20.82029708 108.4453125 31.859375 C109.9765625 33.5078125 109.9765625 33.5078125 110.9765625 36.5078125 C108.3823152 39.20138909 105.74635539 41.49564322 102.7265625 43.6953125 C96.90573481 48.14992939 92.04170916 53.41009251 87.9765625 59.5078125 C86.60822917 59.5078125 85.7421875 58.5546875 86.0390625 57.1484375 C86.70052083 53.99739583 87.81054688 51.50846354 89.9140625 47.8203125 C90.43871094 46.88832031 90.96335937 45.95632812 91.50390625 44.99609375 C92.60652779 43.13304356 93.77569995 41.30910632 94.9765625 39.5078125 C94.91556773 37.41475931 94.91556773 37.41475931 93.9765625 35.5078125 C82.48463085 28.35245883 68.70163996 26.73756583 55.625 29.76953125 C28.97199083 37.19935239 8.43499614 59.02509243 -5.0234375 82.5078125 C-5.6122168 83.5302002 -5.6122168 83.5302002 -6.21289062 84.57324219 C-12.04373832 94.91974637 -18.0234375 107.44529841 -18.0234375 119.5078125 C-17.21261719 118.8065625 -16.40179688 118.1053125 -15.56640625 117.3828125 C24.72500659 82.76063557 72.3320772 59.28220885 126.1640625 59.3203125 C127.24324951 59.32039307 128.32243652 59.32047363 129.43432617 59.32055664 C139.5962588 59.39231637 150.131036 59.75503305 159.9765625 62.5078125 C159.43605846 66.76947901 156.81537731 69.63557081 154.2265625 72.8828125 C153.79601562 73.43453125 153.36546875 73.98625 152.921875 74.5546875 C150.0116748 78.26649973 147.0098765 81.89620482 143.9765625 85.5078125 C143.3165625 85.1778125 142.6565625 84.8478125 141.9765625 84.5078125 C142.28838319 83.09099616 142.60104987 81.67436599 142.9140625 80.2578125 C143.17509766 79.07445312 143.17509766 79.07445312 143.44140625 77.8671875 C143.9241397 75.73893201 144.44363278 73.62391439 144.9765625 71.5078125 C92.43769853 70.23331123 40.07611403 82.49041141 -2.0234375 115.5078125 C-1.46253418 115.2814209 -0.90163086 115.0550293 -0.32373047 114.82177734 C21.60635566 106.00661328 43.51575839 97.30977667 66.6640625 92.2578125 C67.35129395 92.10642822 68.03852539 91.95504395 68.74658203 91.79907227 C83.1986207 88.85032297 97.62183842 88.15858891 112.33154297 88.19213867 C115.2096977 88.19529401 118.08681523 88.17174745 120.96484375 88.14648438 C136.12937121 88.09492304 151.40864365 88.99665444 165.9765625 93.5078125 C165.9765625 94.4978125 165.9765625 95.4878125 165.9765625 96.5078125 C165.41899765 96.51367874 164.8614328 96.51954498 164.28697205 96.52558899 C94.74310329 95.13967471 94.74310329 95.13967471 28.9765625 113.5078125 C29.69384521 113.37205811 30.41112793 113.23630371 31.15014648 113.09643555 C65.32977303 106.67875914 100.20766008 101.72837073 135.0390625 104.3203125 C136.21122314 104.40651855 137.38338379 104.49272461 138.59106445 104.58154297 C148.16968802 105.33849233 157.55191985 106.65984335 166.9765625 108.5078125 C166.9765625 109.4978125 166.9765625 110.4878125 166.9765625 111.5078125 C161.7531439 112.36174809 156.69396208 112.68251935 151.40625 112.75390625 C149.70816506 112.78501934 148.01008583 112.8164458 146.31201172 112.84814453 C144.97925201 112.87113617 144.97925201 112.87113617 143.61956787 112.89459229 C135.07093254 113.05123527 126.52359895 113.28182763 117.9765625 113.5078125 C117.16010254 113.52890076 116.34364258 113.54998901 115.50244141 113.57171631 C87.64482391 114.31577661 60.46647355 118.07220703 32.9765625 122.5078125 C31.46751343 122.75005554 31.46751343 122.75005554 29.92797852 122.99719238 C19.73074022 124.63502498 9.53822682 126.30160465 -0.64453125 128.02734375 C-1.72417145 128.2082103 -1.72417145 128.2082103 -2.82562256 128.39273071 C-6.43826013 129.01128517 -9.98526925 129.73408734 -13.54711914 130.6003418 C-20.27029776 132.11331308 -26.31815899 131.61815976 -33.07421875 130.2578125 C-45.29809416 127.94568476 -57.66037475 126.55089646 -70.00170898 125.02832031 C-73.4718309 124.60016817 -76.94102291 124.16496536 -80.41000175 123.72766113 C-94.63668446 121.93679412 -108.86977163 120.25862443 -123.13671875 118.8203125 C-124.9042878 118.64133423 -124.9042878 118.64133423 -126.70756531 118.45874023 C-140.37152525 117.11839639 -153.97919653 116.3612143 -167.70703125 116.19140625 C-169.14291367 116.17075588 -170.57879113 116.14975785 -172.0146637 116.12843323 C-175.73804625 116.0740446 -179.46147572 116.02427967 -183.18493652 115.97558594 C-187.00679547 115.92475081 -190.82858887 115.86939331 -194.65039062 115.81445312 C-202.10801694 115.7078944 -209.5656989 115.60623609 -217.0234375 115.5078125 C-217.6484375 113.6328125 -217.6484375 113.6328125 -218.0234375 111.5078125 C-210.8741623 104.3585373 -191.32889272 106.14687884 -181.86282349 106.09057617 C-178.58281679 106.09082473 -175.30335656 106.10946021 -172.0234375 106.1328125 C-170.3174942 106.13879456 -170.3174942 106.13879456 -168.5770874 106.14489746 C-148.92093889 106.22538919 -129.53792675 107.17231459 -110.0234375 109.5078125 C-109.33616577 109.58984924 -108.64889404 109.67188599 -107.9407959 109.75640869 C-94.91003039 111.32137992 -81.91826069 113.04195463 -69.0234375 115.5078125 C-116.3836087 98.62126343 -160.27326408 95.39229063 -209.86981201 100.89805603 C-213.60506549 101.30346421 -217.26493459 101.61235797 -221.0234375 101.5078125 C-221.5184375 99.0328125 -221.5184375 99.0328125 -222.0234375 96.5078125 C-213.71576137 92.27884042 -204.43843953 89.15910872 -195.0234375 89.5078125 C-200.93112392 81.89000632 -208.22109594 76.44570215 -217.0234375 72.5078125 C-216.6934375 71.5178125 -216.3634375 70.5278125 -216.0234375 69.5078125 C-195.0832484 59.86120853 -169.87863285 59.21763593 -147.4609375 61.9453125 C-145.70040039 62.14737305 -145.70040039 62.14737305 -143.90429688 62.35351562 C-135.29527471 63.3718939 -135.29527471 63.3718939 -133.0234375 64.5078125 C-133.03914795 63.85409668 -133.0548584 63.20038086 -133.07104492 62.52685547 C-133.40702794 46.40250573 -133.29818226 32.70928929 -126.2109375 17.9453125 C-125.89189453 17.27757812 -125.57285156 16.60984375 -125.24414062 15.921875 C-122.86300846 11.3098991 -120.18786652 8.60291595 -116.0234375 5.5078125 C-114.12697027 7.40427973 -114.30234782 10.84175644 -113.8984375 13.3828125 C-111.37513211 27.02225737 -102.61600673 37.15722969 -91.46875 45.109375 C-83.90408988 50.31026182 -76.022401 55.00932651 -68.0234375 59.5078125 C-68.38695312 58.28191406 -68.75046875 57.05601563 -69.125 55.79296875 C-72.09509143 45.66498685 -74.89222771 35.49521361 -77.4609375 25.2578125 C-77.73180176 24.22406494 -78.00266602 23.19031738 -78.28173828 22.12524414 C-79.99964563 15.12116193 -80.73279941 8.98296599 -78.11328125 2.125 C-58.93125237 -26.87562672 -24.2907895 -15.31606902 0 0 Z M-122.0234375 31.5078125 C-122.67421046 33.54791005 -123.31883574 35.58996919 -123.9609375 37.6328125 C-124.50041016 39.33824219 -124.50041016 39.33824219 -125.05078125 41.078125 C-126.7050204 46.91114496 -127.16205525 52.34023399 -127.0859375 58.3828125 C-127.08142578 59.07117188 -127.07691406 59.75953125 -127.07226562 60.46875 C-127.06060086 62.14847585 -127.04267021 63.82815625 -127.0234375 65.5078125 C-122.62843695 66.98630611 -118.23165082 68.45174936 -113.8046875 69.83203125 C-103.0792558 73.21619701 -93.02414266 77.3686215 -83.0234375 82.5078125 C-82.22647461 82.91660645 -81.42951172 83.32540039 -80.60839844 83.74658203 C-67.39932928 90.59888344 -54.64638046 98.23938512 -43.23828125 107.85546875 C-41.0832238 109.80679372 -41.0832238 109.80679372 -38.0234375 109.5078125 C-37.62125 110.466875 -37.62125 110.466875 -37.2109375 111.4453125 C-36.13675998 113.83912936 -36.13675998 113.83912936 -33.0234375 114.5078125 C-37.90452798 95.95966866 -55.35691272 77.64832672 -71.0234375 67.5078125 C-76.24230693 64.61868572 -81.62147451 62.09064149 -87.02685547 59.57568359 C-99.24007015 53.85645192 -109.55370462 47.65808987 -117.5859375 36.453125 C-118.94121677 34.6190786 -120.36996313 33.07270789 -122.0234375 31.5078125 Z M-66.0234375 35.5078125 C-65.78375441 39.18570817 -65.41209184 42.84280205 -65.0234375 46.5078125 C-64.95318359 47.25788574 -64.88292969 48.00795898 -64.81054688 48.78076172 C-64.20591979 60.29625687 -64.20591979 60.29625687 -58.3984375 69.5703125 C-57.69332031 70.04339844 -56.98820313 70.51648438 -56.26171875 71.00390625 C-44.79739583 78.8015625 -37.19739583 92.4015625 -32.39739583 98.8015625 C-31.84739583 99.5515625 -31.14739583 99.9515625 -30.59739583 99.7515625 C-29.94739583 99.51822917 -29.54739583 98.7515625 -29.59739583 97.9515625 C-29.94739583 84.0015625 -34.19739583 69.8015625 -42.0234375 58.5078125 C-44.30322917 55.3503125 -47.49822917 52.7753125 -50.0234375 50.5078125 C-51.27121998 49.25427207 -52.51579384 47.99753276 -53.7578125 46.73828125 C-55.0963094 45.39058054 -56.43485193 44.04292514 -57.7734375 42.6953125 C-58.45792969 42.00244141 -59.14242187 41.30957031 -59.84765625 40.59570312 C-60.49863281 39.94150391 -61.14960938 39.28730469 -61.8203125 38.61328125 C-62.41166992 38.01668701 -63.00302734 37.42009277 -63.61230469 36.80541992 C-64.82661182 35.39499964 -64.82661182 35.39499964 -66.0234375 35.5078125 Z M-193.0234375 73.5078125 C-191.65238102 78.99203842 -189.45263901 83.8963431 -185.0234375 87.5078125 C-182.74596017 87.72976549 -182.74596017 87.72976549 -180.26171875 87.24609375 C-173.05669746 86.33810766 -165.9029659 86.26509015 -158.6484375 86.2578125 C-157.94678467 86.25680542 -157.24513184 86.25579834 -156.5222168 86.25476074 C-144.48889578 86.26637988 -132.83023578 87.08804466 -121.0234375 89.5078125 C-120.33507812 89.64703125 -119.64671875 89.78625 -118.9375 89.9296875 C-100.48622227 93.80660967 -82.97931054 100.74577472 -65.77929688 108.30664062 C-60.82006209 110.46817811 -55.83217023 112.55850379 -50.8359375 114.6328125 C-49.88468994 115.0354834 -48.93344238 115.4381543 -47.95336914 115.85302734 C-47.07543701 116.21605957 -46.19750488 116.5790918 -45.29296875 116.953125 C-44.51542236 117.27812988 -43.73787598 117.60313477 -42.93676758 117.93798828 C-40.96386564 118.76298688 -40.96386564 118.76298688 -39.0234375 117.5078125 C-66.39877111 96.86472805 -97.60144149 82.11821309 -131.0234375 74.5078125 C-131.7462793 74.34120117 -132.46912109 74.17458984 -133.21386719 74.00292969 C-144.06973359 71.6163191 -154.88669295 71.2250114 -165.9609375 71.1953125 C-167.26450195 71.18975342 -168.56806641 71.18419434 -169.91113281 71.1784668 C-177.80182015 71.23736004 -185.2893819 71.93360824 -193.0234375 73.5078125 Z " fill="#FFFFFF" transform="translate(237.0234375,50.4921875)"/>
</svg>
